<?xml version="1.0" standalone="no"?>
<!DOCTYPE svg PUBLIC "-//W3C//DTD SVG 20010904//EN"
 "http://www.w3.org/TR/2001/REC-SVG-20010904/DTD/svg10.dtd">
<svg version="1.0" xmlns="http://www.w3.org/2000/svg"
 width="204.000000pt" height="204.000000pt" viewBox="0 0 204.000000 204.000000"
 preserveAspectRatio="xMidYMid meet">
<metadata>
Created by potrace 1.14, written by Peter Selinger 2001-2017
</metadata>
<g transform="translate(0.000000,204.000000) scale(0.100000,-0.100000)"
fill="#000000" stroke="none">
<path d="M310 1203 c-1 -16 -9 -110 -18 -210 l-18 -183 106 0 c95 0 112 3 159
26 126 63 167 225 84 325 -45 53 -93 69 -210 69 l-103 0 0 -27z m217 -98 c17
-19 23 -39 23 -71 0 -83 -47 -134 -126 -134 -32 0 -36 2 -31 23 3 12 9 66 12
121 l8 98 45 -5 c34 -4 53 -12 69 -32z"/>
<path d="M717 1027 c-53 -112 -97 -207 -97 -211 0 -3 24 -6 53 -6 51 0 54 1
70 35 l17 35 79 0 79 0 12 -35 12 -35 113 0 113 0 7 78 c13 163 8 161 82 34
l65 -112 53 0 54 0 5 43 c3 23 10 96 16 162 6 66 13 141 16 168 l6 47 -55 0
-55 0 -7 -67 c-3 -38 -9 -87 -13 -111 l-7 -43 -64 111 -65 110 -53 0 c-62 0
-55 20 -78 -234 -9 -94 -18 -172 -20 -174 -2 -3 -12 22 -21 54 -9 33 -35 124
-58 204 l-41 145 -61 3 -61 3 -96 -204z m162 11 c17 -74 16 -78 -27 -78 -21 0
-41 3 -44 6 -4 3 6 34 20 69 15 35 30 61 33 57 4 -4 11 -28 18 -54z"/>
<path d="M1500 1181 c0 -27 -3 -58 -6 -68 -6 -18 17 5 77 80 l31 37 -51 0 -51
0 0 -49z"/>
<path d="M1571 1138 c-86 -106 -86 -110 10 -149 54 -21 64 -30 64 -50 0 -43
-46 -53 -115 -25 -10 4 -22 -7 -38 -34 l-23 -40 28 -11 c55 -22 127 -23 176
-1 55 24 79 58 85 120 5 61 -13 85 -93 117 -49 19 -60 28 -60 47 0 32 42 46
82 26 29 -14 30 -14 51 19 12 18 22 35 22 38 0 10 -68 35 -92 35 -17 0 -43
-26 -97 -92z"/>
</g>
</svg>
